# xmcd
#
# Track frame offsets: 
#        150
#        18300
#        42577
#        60871
#        75783
#        93135
#        109585
#        125395
#        150694
#        167424
#        184499
#        201339
#        220437
#        238592
#        254400
#        272730
#        294510
#        310945
#
# Disc length: 4376 seconds
#
# Revision: 0
# Processed by: cddbd v1.5.1PL2 Copyright (c) Steve Scherf et al.
# Submitted via: ExactAudioCopy v0.95b2
#
DISCID=f2111612
DTITLE=Dr. Alban - Все хиты техно
DYEAR=2005
DGENRE=Techno
TTITLE0=It's My Life
TTITLE1=Loock Who's Talking
TTITLE2=Let The Beat Go On
TTITLE3=Away From Home
TTITLE4=This Time I'm Free
TTITLE5=Hallelujah Day
TTITLE6=Born In Africa
TTITLE7=Hello Africa
TTITLE8=Stop The Pollution
TTITLE9=U and Mi
TTITLE10=No Coke
TTITLE11=One Love
TTITLE12=Sing Hallelujah
TTITLE13=Sweet Dreams (feat. Swing)
TTITLE14=Reggae Gone Ragga
TTITLE15=Om We Rembweike
TTITLE16=Cash Money
TTITLE17=It's My Life (Sash Rmx)
EXTD=
EXTT0=
EXTT1=
EXTT2=
EXTT3=
EXTT4=
EXTT5=
EXTT6=
EXTT7=
EXTT8=
EXTT9=
EXTT10=
EXTT11=
EXTT12=
EXTT13=
EXTT14=
EXTT15=
EXTT16=
EXTT17=
PLAYORDER=
